<?xml version="1.0" standalone="no"?>
<!DOCTYPE svg PUBLIC "-//W3C//DTD SVG 20010904//EN"
 "http://www.w3.org/TR/2001/REC-SVG-20010904/DTD/svg10.dtd">
<svg version="1.0" xmlns="http://www.w3.org/2000/svg"
 width="2000.000000pt" height="2000.000000pt" viewBox="0 0 2000.000000 2000.000000"
 preserveAspectRatio="xMidYMid meet">
<metadata>
Created by potrace 1.11, written by Peter Selinger 2001-2013
</metadata>
<g transform="translate(0.000000,2000.000000) scale(0.100000,-0.100000)"
fill="#000000" stroke="none">
<path d="M0 10000 l0 -10000 10000 0 10000 0 0 10000 0 10000 -10000 0 -10000
0 0 -10000z m10105 4836 c76 -20 134 -53 195 -112 41 -40 265 -370 875 -1288
l820 -1234 586 -1 c637 -1 628 0 724 -59 22 -13 192 -175 377 -360 l337 -336
528 352 c290 193 551 361 578 374 113 49 297 31 405 -41 61 -41 981 -965 1015
-1020 15 -24 36 -69 46 -99 18 -54 19 -131 19 -2777 0 -2654 0 -2723 -19
-2777 -48 -138 -150 -241 -286 -288 -58 -20 -80 -20 -6310 -20 -6130 0 -6253
0 -6307 19 -139 48 -242 151 -288 287 -20 58 -20 90 -18 3239 l3 3180 33 67
c48 98 118 170 210 215 75 37 78 38 194 38 l118 0 953 -477 953 -476 56 -61
c49 -53 83 -113 263 -473 113 -227 209 -416 213 -420 4 -4 135 372 291 835
272 811 285 846 331 908 76 102 2716 2732 2770 2760 113 57 232 73 335 45z"/>
<path d="M8828 12622 l-1096 -1097 -422 -1270 c-233 -698 -436 -1297 -452
-1329 -92 -183 -303 -282 -495 -232 -91 23 -140 51 -210 121 -61 61 -70 77
-480 901 l-418 839 -497 247 -498 248 0 -2510 0 -2510 5735 0 5735 0 0 2333 0
2332 -248 248 c-136 136 -251 247 -255 247 -4 0 -244 -158 -535 -352 -348
-232 -545 -358 -581 -370 -118 -39 -233 -32 -351 24 -33 15 -155 130 -450 424
l-405 404 -577 0 c-637 0 -684 4 -782 59 -29 17 -69 47 -90 67 -21 20 -371
537 -778 1148 -407 611 -743 1114 -747 1118 -4 4 -500 -486 -1103 -1090z"/>
</g>
</svg>
